<?xml version="1.0" encoding="UTF-8"?>
<svg xmlns="http://www.w3.org/2000/svg" xmlns:xlink="http://www.w3.org/1999/xlink" width="45px" height="30px" viewBox="0 0 45 30" version="1.1">
<g id="surface1">
<path style=" stroke:none;fill-rule:nonzero;fill:rgb(0%,0%,0%);fill-opacity:1;" d="M 21.601562 2.109375 C 21.476562 2.121094 21.160156 2.160156 20.898438 2.203125 C 19.40625 2.449219 18.308594 3.027344 17.519531 3.988281 C 17.210938 4.367188 16.789062 5.195312 16.695312 5.617188 C 16.632812 5.878906 16.613281 5.898438 16.390625 6.011719 C 15.933594 6.234375 15.75 6.75 15.75 7.792969 C 15.75 8.453125 15.820312 9.035156 16.003906 9.898438 L 16.109375 10.414062 L 16.320312 10.191406 C 16.480469 10.03125 16.570312 9.96875 16.679688 9.96875 L 16.824219 9.96875 L 16.914062 9.398438 C 17.101562 8.179688 17.40625 7.285156 17.714844 7.058594 C 17.84375 6.96875 17.925781 6.957031 18.617188 6.964844 C 19.21875 6.96875 19.558594 7.003906 20.273438 7.128906 C 21.535156 7.351562 21.867188 7.460938 22.140625 7.726562 C 22.355469 7.933594 22.359375 7.945312 22.339844 8.199219 C 22.308594 8.496094 22.210938 8.632812 21.96875 8.679688 C 21.761719 8.714844 21.59375 8.625 21.445312 8.386719 L 21.339844 8.222656 L 21.363281 8.492188 C 21.390625 8.820312 21.535156 8.992188 21.839844 9.0625 C 22.089844 9.121094 22.453125 9.046875 22.65625 8.902344 C 22.886719 8.738281 23.0625 8.300781 23.089844 7.839844 C 23.109375 7.53125 23.128906 7.433594 23.195312 7.417969 C 23.390625 7.359375 25.015625 7.039062 25.425781 6.976562 C 26.121094 6.875 26.984375 6.886719 27.191406 7 C 27.597656 7.222656 27.980469 8.300781 28.125 9.648438 C 28.160156 9.960938 28.164062 9.96875 28.300781 9.96875 C 28.46875 9.96875 28.71875 10.167969 28.835938 10.394531 L 28.914062 10.550781 L 29.03125 10.046875 C 29.371094 8.574219 29.394531 7.214844 29.101562 6.628906 C 28.988281 6.410156 28.769531 6.199219 28.589844 6.128906 C 28.480469 6.089844 28.449219 6.042969 28.449219 5.925781 C 28.449219 5.6875 28.210938 4.914062 28.019531 4.554688 C 27.425781 3.40625 26.207031 2.613281 24.53125 2.277344 C 23.679688 2.105469 22.515625 2.039062 21.601562 2.109375 Z M 21.601562 2.109375 "/>
<path style=" stroke:none;fill-rule:nonzero;fill:rgb(0%,0%,0%);fill-opacity:1;" d="M 18.253906 9.980469 C 17.515625 10.046875 16.644531 10.203125 16.59375 10.285156 C 16.570312 10.320312 16.550781 10.488281 16.550781 10.660156 C 16.550781 10.929688 16.566406 10.980469 16.667969 11.054688 C 16.753906 11.101562 16.828125 11.253906 16.921875 11.523438 C 17.242188 12.546875 17.425781 12.722656 18.320312 12.910156 C 19.074219 13.066406 20.253906 13.015625 20.835938 12.796875 C 21.34375 12.605469 21.671875 12.175781 21.945312 11.320312 C 22.074219 10.929688 22.183594 10.828125 22.476562 10.828125 C 22.765625 10.828125 22.875 10.929688 23 11.320312 C 23.160156 11.820312 23.433594 12.324219 23.648438 12.519531 C 23.753906 12.613281 23.964844 12.738281 24.121094 12.796875 C 24.691406 13.015625 25.875 13.066406 26.632812 12.910156 C 27.53125 12.722656 27.75 12.5 28.050781 11.5 C 28.121094 11.25 28.191406 11.117188 28.273438 11.0625 C 28.390625 10.988281 28.398438 10.945312 28.398438 10.625 C 28.398438 10.433594 28.375 10.261719 28.351562 10.25 C 28.230469 10.171875 27.179688 10.015625 26.421875 9.960938 C 25.460938 9.894531 24.886719 9.941406 23.640625 10.183594 C 22.628906 10.378906 22.339844 10.378906 21.300781 10.175781 C 19.914062 9.914062 19.378906 9.878906 18.253906 9.980469 Z M 20.5 10.34375 C 21.042969 10.445312 21.355469 10.550781 21.5 10.6875 C 21.601562 10.785156 21.609375 10.828125 21.585938 11.101562 C 21.535156 11.730469 21.253906 12.261719 20.882812 12.445312 C 20.628906 12.570312 19.824219 12.703125 19.320312 12.703125 C 18.839844 12.703125 18.070312 12.566406 17.804688 12.433594 C 17.519531 12.292969 17.414062 12.089844 17.320312 11.488281 C 17.195312 10.699219 17.3125 10.507812 18.023438 10.351562 C 18.214844 10.308594 18.445312 10.261719 18.527344 10.253906 C 18.820312 10.207031 20.078125 10.269531 20.5 10.34375 Z M 26.523438 10.273438 C 26.984375 10.339844 27.359375 10.457031 27.496094 10.5625 C 27.667969 10.707031 27.710938 11.011719 27.625 11.519531 C 27.492188 12.285156 27.394531 12.402344 26.757812 12.558594 C 25.90625 12.769531 24.578125 12.707031 24.050781 12.433594 C 23.683594 12.246094 23.425781 11.738281 23.363281 11.101562 C 23.339844 10.824219 23.351562 10.785156 23.453125 10.683594 C 23.800781 10.359375 25.515625 10.132812 26.523438 10.273438 Z M 26.523438 10.273438 "/>
<path style=" stroke:none;fill-rule:nonzero;fill:rgb(0%,0%,0%);fill-opacity:1;" d="M 18.949219 18.300781 C 18.71875 18.625 18.460938 18.933594 18.375 18.988281 C 18.109375 19.148438 17.3125 19.375 16.039062 19.628906 C 14.445312 19.953125 13.761719 20.140625 13.125 20.410156 C 12.15625 20.828125 11.484375 21.40625 11.136719 22.128906 C 10.941406 22.519531 10.652344 23.578125 10.53125 24.316406 C 10.492188 24.566406 10.429688 25.089844 10.398438 25.480469 C 10.375 25.871094 10.335938 26.320312 10.320312 26.476562 C 10.304688 26.664062 10.316406 26.773438 10.34375 26.773438 C 10.375 26.773438 10.933594 26.863281 11.585938 26.96875 C 14.363281 27.441406 16.589844 27.707031 19.25 27.894531 C 20.449219 27.980469 24.28125 27.980469 25.5 27.894531 C 28 27.71875 30.375 27.449219 33 27.042969 C 34.515625 26.8125 34.699219 26.773438 34.699219 26.671875 C 34.699219 26.355469 34.539062 24.640625 34.472656 24.261719 C 34.21875 22.777344 33.890625 21.941406 33.335938 21.367188 C 32.523438 20.523438 31.550781 20.132812 28.925781 19.609375 C 28.320312 19.488281 27.625 19.332031 27.386719 19.257812 C 26.644531 19.039062 26.53125 18.964844 26.03125 18.300781 C 25.765625 17.949219 25.558594 17.734375 25.53125 17.753906 C 25.5 17.773438 25.3125 17.898438 25.109375 18.03125 C 24.46875 18.460938 23.621094 18.796875 22.820312 18.9375 C 22.511719 18.988281 22.40625 18.984375 22.019531 18.902344 C 21.167969 18.726562 20.519531 18.457031 19.816406 17.988281 C 19.59375 17.832031 19.398438 17.714844 19.390625 17.714844 C 19.378906 17.714844 19.183594 17.976562 18.949219 18.300781 Z M 18.949219 18.300781 "/>
</g>
</svg>
