<?xml version="1.0" encoding="UTF-8"?>
<svg xmlns="http://www.w3.org/2000/svg" xmlns:xlink="http://www.w3.org/1999/xlink" width="30px" height="30px" viewBox="0 0 30 30" version="1.1">
<g id="surface1">
<path style=" stroke:none;fill-rule:nonzero;fill:rgb(0%,0%,0%);fill-opacity:1;" d="M 17.417969 2.625 C 17.117188 2.691406 16.800781 2.785156 16.707031 2.832031 C 16.617188 2.875 16.339844 2.992188 16.101562 3.082031 C 15.277344 3.398438 14.132812 4.117188 13.359375 4.808594 C 12.917969 5.199219 11.742188 6.625 11.832031 6.652344 C 11.882812 6.667969 11.683594 6.859375 11.398438 7.082031 C 10.484375 7.777344 9.933594 8.617188 9.617188 9.78125 C 9.359375 10.757812 9.359375 11.441406 9.632812 12.652344 C 9.808594 13.441406 9.839844 13.734375 9.792969 14.21875 C 9.726562 14.984375 9.640625 15.058594 8.792969 15.132812 C 8.050781 15.191406 7.957031 15.25 7.324219 15.976562 C 6.816406 16.558594 6.507812 17.226562 6.367188 18.03125 C 6.300781 18.398438 6.207031 18.742188 6.167969 18.78125 C 6.117188 18.832031 5.832031 18.859375 5.515625 18.847656 L 4.957031 18.839844 L 4.457031 19.457031 C 4.007812 20.015625 3.949219 20.132812 3.832031 20.722656 C 3.757812 21.082031 3.617188 21.558594 3.507812 21.773438 L 3.316406 22.175781 L 3.550781 22.507812 C 3.675781 22.691406 3.917969 22.949219 4.074219 23.074219 C 4.660156 23.535156 4.824219 23.574219 5.96875 23.59375 C 7.972656 23.617188 8.117188 23.542969 9.332031 21.890625 C 9.625 21.492188 9.898438 21.167969 9.933594 21.167969 C 9.964844 21.167969 10 21.117188 10 21.058594 C 10.007812 21.007812 10.191406 20.734375 10.417969 20.457031 C 10.648438 20.183594 10.972656 19.75 11.152344 19.5 C 11.316406 19.25 11.476562 19.027344 11.507812 19 C 11.675781 18.847656 12.5 17.742188 12.5 17.667969 C 12.5 17.617188 12.550781 17.558594 12.609375 17.535156 C 12.667969 17.515625 12.800781 17.347656 12.910156 17.175781 C 13.140625 16.808594 13.742188 16.410156 14.042969 16.433594 C 14.160156 16.441406 14.25 16.484375 14.25 16.523438 C 14.25 16.558594 14.273438 16.574219 14.316406 16.558594 C 14.382812 16.507812 15.097656 16.875 15.042969 16.933594 C 15.015625 16.949219 15.140625 17.035156 15.316406 17.109375 C 15.558594 17.226562 15.589844 17.226562 15.464844 17.125 C 15.375 17.058594 15.34375 17 15.390625 17 C 15.558594 17 15.640625 17.207031 15.824219 18.125 C 15.933594 18.625 16.140625 19.660156 16.300781 20.417969 C 16.457031 21.175781 16.675781 22.242188 16.792969 22.792969 C 17.109375 24.390625 17.417969 25.589844 17.550781 25.832031 C 17.625 25.949219 17.792969 26.125 17.917969 26.207031 C 18.050781 26.300781 18.132812 26.398438 18.117188 26.433594 C 18.089844 26.464844 18.132812 26.476562 18.199219 26.449219 C 18.265625 26.425781 18.390625 26.476562 18.484375 26.558594 C 18.566406 26.640625 18.691406 26.714844 18.757812 26.734375 C 18.824219 26.742188 19.191406 26.910156 19.582031 27.109375 C 20.140625 27.382812 20.390625 27.457031 20.75 27.464844 C 21 27.464844 21.234375 27.433594 21.257812 27.390625 C 21.292969 27.351562 21.40625 27.308594 21.535156 27.308594 C 21.652344 27.300781 21.75 27.277344 21.75 27.25 C 21.75 27.226562 21.875 27.140625 22.027344 27.058594 C 22.285156 26.917969 22.292969 26.890625 22.308594 26.332031 C 22.316406 26.015625 22.382812 25.53125 22.46875 25.257812 C 22.617188 24.726562 22.589844 24.558594 22.285156 23.535156 C 22.15625 23.140625 22.132812 23.109375 21.773438 23 C 21.367188 22.882812 20.976562 22.574219 21.148438 22.515625 C 21.207031 22.5 21.234375 22.449219 21.207031 22.410156 C 21.183594 22.367188 21.214844 22.167969 21.285156 21.957031 C 21.558594 21.148438 21.492188 19.941406 21.117188 19 C 20.902344 18.464844 20.882812 18.449219 20.300781 18.167969 C 19.777344 17.910156 19.707031 17.851562 19.691406 17.625 C 19.675781 17.292969 20 16.410156 20.109375 16.476562 C 20.160156 16.507812 20.175781 16.476562 20.140625 16.390625 C 20.117188 16.308594 20.125 16.25 20.175781 16.25 C 20.226562 16.25 20.242188 16.214844 20.21875 16.175781 C 20.191406 16.140625 20.25 16.035156 20.347656 15.949219 C 20.949219 15.417969 21.675781 14.058594 21.882812 13.101562 C 22.175781 11.707031 21.824219 10.199219 20.957031 9.058594 C 20.792969 8.839844 20.65625 8.65625 20.648438 8.648438 C 20.640625 8.632812 20.792969 8.390625 20.984375 8.117188 C 21.949219 6.683594 22.125 5.398438 21.515625 4.074219 C 21.25 3.472656 20.824219 3.050781 20.207031 2.75 C 19.867188 2.582031 19.640625 2.550781 18.875 2.527344 C 18.292969 2.507812 17.757812 2.550781 17.417969 2.625 Z M 19.875 3.234375 C 20.617188 3.507812 21.074219 3.925781 21.292969 4.515625 C 21.609375 5.398438 21.417969 6.464844 20.734375 7.609375 C 20.339844 8.257812 19.332031 9.324219 18.707031 9.75 C 18.484375 9.898438 18.277344 10.050781 18.25 10.082031 C 18.226562 10.109375 18.023438 10.222656 17.792969 10.332031 C 17.566406 10.449219 17.347656 10.574219 17.316406 10.625 C 17.28125 10.667969 17.25 10.675781 17.25 10.632812 C 17.25 10.597656 17.160156 10.625 17.042969 10.699219 C 16.933594 10.777344 16.777344 10.851562 16.691406 10.867188 C 16.609375 10.875 16.484375 10.90625 16.417969 10.933594 C 15.742188 11.160156 15.726562 11.160156 15.574219 11.050781 C 15.484375 10.992188 15.441406 10.917969 15.472656 10.890625 C 15.5 10.859375 15.484375 10.832031 15.433594 10.832031 C 15.375 10.832031 15.332031 10.792969 15.332031 10.742188 C 15.332031 10.699219 15.375 10.683594 15.417969 10.707031 C 15.464844 10.734375 15.5 10.675781 15.5 10.574219 C 15.5 10.476562 15.523438 10.410156 15.550781 10.441406 C 15.574219 10.46875 15.683594 10.390625 15.792969 10.273438 C 15.925781 10.117188 16.125 10.027344 16.5 9.949219 C 19.359375 9.367188 21.773438 5.433594 20.160156 3.992188 C 19.714844 3.589844 18.941406 3.5 17.902344 3.707031 C 16.53125 3.976562 15.449219 4.566406 14.292969 5.675781 C 13.75 6.191406 13.667969 6.242188 13.082031 6.375 C 12.742188 6.449219 12.40625 6.535156 12.351562 6.550781 C 12.183594 6.601562 12.800781 5.882812 13.425781 5.292969 C 15.066406 3.734375 17.167969 2.839844 18.875 2.984375 C 19.109375 3 19.550781 3.109375 19.875 3.234375 Z M 19 3.925781 C 19 3.976562 19.058594 3.992188 19.132812 3.964844 C 19.324219 3.890625 19.597656 3.992188 19.53125 4.101562 C 19.5 4.148438 19.515625 4.167969 19.558594 4.140625 C 19.660156 4.074219 19.933594 4.300781 20.066406 4.550781 C 20.476562 5.324219 20.265625 6.558594 19.589844 7.417969 C 19.433594 7.609375 19.410156 7.617188 19.148438 7.507812 C 18.640625 7.300781 18.042969 7.09375 17.824219 7.050781 C 17.707031 7.027344 17.464844 6.898438 17.28125 6.78125 C 16.882812 6.507812 16.101562 6.175781 15.542969 6.050781 C 15.226562 5.976562 15.125 5.917969 15.132812 5.800781 C 15.148438 5.667969 15.140625 5.667969 14.96875 5.808594 C 14.824219 5.933594 14.824219 5.917969 14.992188 5.734375 C 15.097656 5.609375 15.226562 5.527344 15.265625 5.550781 C 15.300781 5.574219 15.359375 5.535156 15.382812 5.464844 C 15.40625 5.398438 15.566406 5.242188 15.734375 5.117188 C 15.890625 4.992188 16 4.933594 15.964844 4.992188 C 15.910156 5.074219 15.933594 5.082031 16.066406 5.007812 C 16.167969 4.957031 16.285156 4.851562 16.324219 4.765625 C 16.375 4.691406 16.417969 4.648438 16.417969 4.683594 C 16.417969 4.726562 16.492188 4.675781 16.582031 4.582031 C 16.683594 4.484375 16.792969 4.433594 16.84375 4.46875 C 16.890625 4.492188 17.007812 4.441406 17.117188 4.339844 C 17.292969 4.175781 17.925781 3.910156 18.117188 3.925781 C 18.167969 3.925781 18.023438 3.992188 17.792969 4.074219 C 17.449219 4.199219 17.410156 4.222656 17.566406 4.265625 C 17.667969 4.300781 17.734375 4.285156 17.699219 4.242188 C 17.675781 4.199219 17.707031 4.167969 17.765625 4.15625 C 17.824219 4.15625 17.949219 4.132812 18.042969 4.117188 C 18.132812 4.101562 18.324219 4.066406 18.457031 4.050781 C 18.816406 4 18.824219 3.992188 18.542969 3.917969 C 18.308594 3.859375 18.316406 3.847656 18.652344 3.839844 C 18.859375 3.832031 19 3.875 19 3.925781 Z M 14.359375 6.140625 C 14.300781 6.160156 14.199219 6.160156 14.152344 6.140625 C 14.089844 6.117188 14.132812 6.097656 14.25 6.097656 C 14.367188 6.097656 14.410156 6.117188 14.359375 6.140625 Z M 15.699219 6.707031 C 16.417969 6.859375 16.550781 6.964844 16.117188 7.042969 C 14.566406 7.308594 12.882812 8.476562 12.226562 9.734375 C 11.839844 10.484375 11.707031 11.050781 11.714844 12 C 11.722656 13.324219 12.175781 14.433594 13.109375 15.472656 C 13.390625 15.792969 13.542969 15.976562 13.441406 15.882812 C 13.339844 15.800781 13.222656 15.75 13.175781 15.757812 C 13.132812 15.773438 12.375 16.707031 11.5 17.832031 C 8.207031 22.042969 7.890625 22.425781 7.648438 22.550781 C 7.515625 22.617188 6.882812 22.742188 6.242188 22.816406 C 4.875 22.972656 4.683594 22.925781 4.257812 22.308594 L 4.007812 21.941406 L 4.175781 21.601562 C 4.273438 21.40625 4.390625 20.992188 4.449219 20.667969 C 4.53125 20.160156 4.582031 20.042969 4.90625 19.714844 C 5.234375 19.382812 5.308594 19.351562 5.757812 19.316406 C 6.042969 19.300781 6.308594 19.222656 6.382812 19.15625 C 6.449219 19.09375 6.589844 18.683594 6.707031 18.265625 C 6.976562 17.273438 7.140625 16.964844 7.683594 16.449219 C 8.339844 15.824219 8.574219 15.667969 8.875 15.667969 C 9.523438 15.667969 10.09375 15.25 10.339844 14.601562 C 10.625 13.859375 10.597656 13.199219 10.25 12.292969 C 10 11.632812 9.964844 11.441406 9.957031 10.75 C 9.957031 10.042969 9.984375 9.910156 10.199219 9.457031 C 10.359375 9.132812 10.648438 8.757812 11.035156 8.382812 C 12.640625 6.824219 13.984375 6.34375 15.699219 6.707031 Z M 17.152344 6.976562 C 17.015625 6.992188 16.816406 6.992188 16.691406 6.976562 C 16.558594 6.957031 16.667969 6.941406 16.917969 6.941406 C 17.167969 6.941406 17.273438 6.957031 17.152344 6.976562 Z M 18.175781 7.742188 C 18.910156 7.972656 19.007812 8.089844 18.691406 8.367188 C 18.566406 8.484375 18.191406 8.722656 17.867188 8.917969 L 17.265625 9.257812 L 16.90625 9.066406 C 15.917969 8.550781 15 9.140625 15 10.308594 C 15.007812 11.757812 16.597656 12.375 17.425781 11.257812 C 17.535156 11.117188 17.648438 11 17.691406 11 C 17.859375 11 19.140625 10.074219 19.597656 9.632812 C 19.867188 9.375 20.117188 9.167969 20.160156 9.167969 C 20.347656 9.167969 21.191406 10.890625 21.417969 11.742188 C 21.726562 12.898438 21.375 13.867188 20.234375 15.042969 C 19.382812 15.910156 19.214844 16.273438 19.207031 17.21875 C 19.207031 17.734375 19.234375 17.839844 19.441406 18.117188 C 19.574219 18.285156 19.832031 18.523438 20.015625 18.640625 C 20.367188 18.875 20.632812 19.316406 20.859375 20.042969 C 21.066406 20.691406 21.074219 21.03125 20.917969 21.757812 C 20.691406 22.824219 20.765625 23.082031 21.40625 23.367188 C 21.683594 23.492188 21.75 23.582031 21.910156 24.03125 C 22.082031 24.523438 22.082031 24.558594 21.949219 24.875 C 21.832031 25.148438 21.78125 25.550781 21.75 26.425781 C 21.75 26.449219 21.601562 26.558594 21.40625 26.65625 C 20.792969 27.007812 20.464844 26.933594 19.332031 26.199219 C 18.792969 25.859375 18.285156 25.476562 18.207031 25.359375 C 18.066406 25.148438 17.875 24.433594 17.398438 22.332031 C 17.265625 21.71875 17.042969 20.714844 16.898438 20.125 C 16.765625 19.523438 16.550781 18.558594 16.425781 17.976562 C 16.292969 17.382812 16.167969 16.890625 16.15625 16.882812 C 16.140625 16.867188 15.839844 16.707031 15.5 16.542969 C 14.65625 16.117188 14.066406 15.71875 13.667969 15.300781 C 13.273438 14.890625 12.792969 14.160156 12.652344 13.765625 C 12.589844 13.625 12.523438 13.5 12.492188 13.5 C 12.457031 13.5 12.441406 13.449219 12.441406 13.390625 C 12.449219 13.339844 12.398438 13.066406 12.34375 12.792969 C 11.925781 10.933594 13.082031 8.707031 14.875 7.90625 C 15.847656 7.476562 17.125 7.410156 18.175781 7.742188 Z M 16.617188 9.300781 C 16.792969 9.367188 16.785156 9.5 16.609375 9.5 C 16.367188 9.5 15.925781 9.808594 15.75 10.101562 C 15.660156 10.25 15.582031 10.332031 15.582031 10.292969 C 15.582031 10.242188 15.5 10.300781 15.417969 10.410156 L 15.25 10.597656 L 15.25 10.382812 C 15.25 9.652344 15.992188 9.058594 16.617188 9.300781 Z M 16.617188 9.300781 "/>
</g>
</svg>
